<?xml version="1.0" standalone="no"?>
<!DOCTYPE svg PUBLIC "-//W3C//DTD SVG 20010904//EN"
 "http://www.w3.org/TR/2001/REC-SVG-20010904/DTD/svg10.dtd">
<svg version="1.0" xmlns="http://www.w3.org/2000/svg"
 width="512.000000pt" height="512.000000pt" viewBox="0 0 512.000000 512.000000"
 preserveAspectRatio="xMidYMid meet">

<g transform="translate(0.000000,512.000000) scale(0.100000,-0.100000)"
fill="#000000" stroke="none">
<path d="M2485 5101 c-81 -37 -134 -117 -135 -203 l0 -48 -47 0 c-97 -1 -182
-65 -209 -158 -42 -143 67 -282 220 -282 35 0 36 -1 36 -39 0 -21 7 -58 15
-82 14 -40 14 -44 -2 -53 -48 -26 -126 -114 -156 -175 -30 -61 -32 -72 -32
-171 0 -97 2 -110 32 -172 17 -37 52 -87 77 -112 l45 -46 -48 -48 c-26 -26
-62 -77 -80 -114 -30 -60 -36 -67 -69 -73 -63 -11 -222 -74 -328 -129 l-102
-53 -5 57 c-2 31 -14 74 -25 96 -21 41 -93 114 -113 114 -7 0 -8 11 -3 33 20
88 -2 176 -59 235 -53 56 -102 76 -182 76 -82 0 -134 -22 -185 -80 -52 -60
-63 -97 -57 -191 l5 -82 -37 -24 c-69 -46 -206 -174 -277 -258 -199 -235 -330
-503 -395 -809 -20 -91 -23 -136 -23 -330 -1 -253 14 -356 77 -545 51 -148 67
-185 229 -491 159 -302 172 -337 120 -349 -41 -9 -102 -63 -123 -109 -47 -103
4 -225 114 -271 l37 -15 0 -79 c0 -74 2 -81 26 -100 25 -20 39 -21 251 -21
l224 0 24 25 c32 31 32 69 0 100 -24 25 -27 25 -200 25 l-175 0 0 24 c0 24 1
24 118 28 138 4 179 20 227 87 27 38 30 51 30 115 0 63 -4 78 -28 113 -47 68
-93 86 -229 91 -116 4 -118 5 -118 28 l0 24 1623 -2 1622 -3 3 -22 c3 -23 1
-23 -95 -23 -129 0 -190 -18 -236 -69 -94 -104 -68 -254 56 -316 45 -22 63
-25 164 -25 l113 0 0 -25 0 -25 -1325 0 -1326 0 -24 -25 c-32 -31 -32 -69 0
-100 l24 -25 1371 0 c875 0 1378 4 1390 10 25 13 40 62 40 134 l1 61 50 24
c67 31 101 83 107 160 3 44 -1 67 -16 98 -24 46 -81 100 -117 109 -23 6 -25
11 -25 66 0 58 5 70 128 302 170 319 210 414 257 608 38 156 48 271 42 466 -6
197 -24 302 -84 486 -41 126 -158 365 -206 421 -38 44 -82 51 -117 20 -33 -30
-25 -69 36 -170 93 -157 155 -316 199 -516 22 -102 31 -381 15 -506 -28 -227
-83 -376 -261 -715 l-131 -248 -633 0 -634 0 11 31 c6 17 8 63 6 102 l-5 72
43 27 c24 15 54 46 70 74 26 44 29 58 29 136 0 49 4 88 8 88 4 0 30 22 57 49
71 71 96 171 64 254 -3 10 2 18 15 22 33 10 99 84 117 131 12 32 15 62 12 113
l-5 69 42 30 c24 17 56 52 72 79 25 43 28 57 27 135 0 75 2 89 17 93 9 3 35
25 58 50 54 58 78 139 64 210 -6 28 -7 51 -3 53 39 15 92 68 115 117 25 50 27
64 23 131 -5 73 -4 75 21 89 34 17 74 61 96 104 22 43 31 131 17 169 -9 25 -8
32 5 37 21 7 74 -30 182 -127 90 -82 116 -92 158 -63 29 20 37 59 19 94 -13
24 -83 89 -209 193 -27 22 -28 24 -17 73 25 112 -30 223 -140 281 -51 27 -162
25 -216 -3 -92 -49 -140 -141 -131 -251 l5 -67 -37 -23 c-61 -39 -110 -127
-111 -203 l0 -36 -115 59 c-64 33 -169 76 -233 97 l-117 39 -30 58 c-16 33
-53 83 -80 112 l-51 52 46 48 c145 150 153 374 20 542 -22 28 -85 79 -118 96
-1 0 5 17 13 37 8 20 15 57 15 82 l0 45 38 0 c128 0 232 102 232 228 0 112
-104 212 -220 212 l-50 0 0 48 c0 51 -34 135 -66 164 -62 55 -168 72 -239 39z
m132 -153 c20 -19 23 -31 23 -99 0 -129 20 -149 147 -149 65 0 80 -3 100 -22
30 -28 29 -63 -2 -93 -22 -23 -32 -25 -108 -25 -122 0 -131 -9 -135 -134 -4
-90 -6 -97 -30 -117 -31 -24 -68 -19 -94 13 -14 16 -18 39 -18 105 0 76 -2 86
-25 108 -22 23 -32 25 -110 25 -78 0 -88 2 -110 25 -30 29 -32 54 -5 88 18 23
27 25 116 29 125 4 134 13 134 135 0 76 2 86 25 108 30 31 62 32 92 3z m35
-818 c53 -15 133 -91 155 -148 65 -171 -55 -346 -237 -346 -176 0 -290 161
-238 338 15 51 99 137 148 153 46 14 125 16 172 3z m-1271 -546 c44 -40 40
-116 -8 -154 -62 -48 -153 -2 -153 77 0 43 21 80 54 94 29 12 85 3 107 -17z
m2511 -13 c27 -24 33 -36 33 -71 0 -35 -6 -47 -34 -72 -29 -26 -39 -30 -75
-25 -52 7 -86 44 -86 93 0 45 13 70 48 88 42 23 78 19 114 -13z m-1240 -101
c57 -16 119 -69 150 -129 22 -42 28 -67 28 -117 0 -77 -15 -118 -65 -172 -44
-49 -101 -78 -173 -87 -52 -7 -92 -37 -92 -71 0 -28 24 -63 49 -72 42 -15 139
4 213 41 l68 33 0 -174 c0 -95 -3 -172 -7 -170 -120 60 -143 68 -231 77 -174
18 -272 109 -272 252 0 74 18 124 63 175 49 55 99 82 172 90 43 5 60 13 75 32
27 34 25 68 -6 99 -24 24 -30 25 -86 19 -74 -9 -147 -35 -194 -71 l-34 -26 0
34 c0 96 74 196 174 234 39 15 120 16 168 3z m-1441 -200 c-15 -58 -12 -129 9
-178 20 -46 88 -123 118 -133 9 -3 9 -14 1 -43 -13 -47 -4 -117 21 -166 18
-35 92 -110 108 -110 4 0 7 -42 7 -94 0 -89 2 -97 30 -137 17 -24 49 -57 71
-74 33 -26 39 -34 33 -55 -14 -52 -9 -115 15 -165 21 -46 86 -117 116 -127 9
-3 9 -13 0 -47 -12 -47 -2 -118 24 -170 16 -30 90 -101 106 -101 5 0 7 -26 3
-65 -4 -40 -1 -81 7 -110 13 -48 71 -121 113 -144 23 -12 24 -16 15 -49 -13
-48 -4 -121 21 -169 20 -40 92 -113 112 -113 7 0 8 -11 3 -33 -10 -44 -7 -117
5 -150 l11 -27 -634 0 -634 0 -130 248 c-176 333 -224 461 -257 677 -17 117
-20 341 -4 452 57 414 287 811 609 1054 63 48 110 61 101 29z m310 -16 c41
-37 29 -127 -20 -154 -64 -34 -151 14 -151 82 0 88 105 132 171 72z m2243 -15
c24 -27 27 -38 23 -73 -7 -52 -44 -86 -93 -86 -46 0 -70 14 -89 50 -21 40 -19
72 6 104 43 55 105 57 153 5z m-1604 -614 c0 -300 -2 -545 -4 -545 -3 0 -20 9
-40 20 -33 20 -34 22 -24 58 13 48 4 120 -21 170 -18 36 -69 89 -105 109 -12
7 -13 16 -5 52 11 48 0 121 -25 170 -15 28 -90 101 -104 101 -4 0 -7 39 -7 88
0 66 -5 96 -19 126 -19 38 -19 39 0 53 54 40 291 140 337 142 16 1 17 -31 17
-544z m953 510 c50 -20 126 -54 168 -77 l78 -41 -23 -46 c-31 -61 -39 -110
-27 -162 8 -37 7 -45 -7 -53 -9 -5 -38 -30 -63 -55 -55 -57 -74 -115 -66 -201
5 -59 5 -60 -30 -81 -78 -49 -127 -164 -106 -254 9 -41 8 -46 -13 -60 -13 -8
-28 -15 -34 -15 -7 0 -10 174 -10 540 0 627 -17 562 133 505z m-1462 -204 c68
-68 8 -184 -85 -167 -65 12 -100 79 -71 139 30 63 107 77 156 28z m1972 -9
c52 -54 24 -151 -47 -164 -74 -14 -139 57 -116 127 15 45 44 65 95 65 32 0 47
-6 68 -28z m-1842 -308 c27 -24 42 -76 30 -106 -14 -37 -58 -68 -98 -68 -69 0
-117 87 -83 150 26 48 110 61 151 24z m1683 5 c24 -11 56 -63 56 -91 0 -25
-40 -79 -68 -89 -37 -14 -95 4 -116 36 -56 86 33 187 128 144z m-1097 -79 c54
-33 147 -60 209 -60 142 0 254 -115 254 -259 -1 -138 -91 -238 -231 -257 -87
-12 -125 -70 -80 -125 17 -21 27 -24 83 -22 70 2 134 21 191 59 l37 24 0 -78
c0 -68 -3 -83 -25 -113 -14 -19 -31 -53 -37 -77 -9 -38 -13 -43 -32 -37 -31
11 -154 34 -208 41 -63 7 -134 56 -172 118 -62 100 -42 242 46 322 48 43 85
59 156 69 78 10 112 58 82 115 -30 57 -194 35 -300 -40 l-30 -21 0 185 c0 102
2 186 4 186 3 0 26 -13 53 -30z m-452 -253 c18 -15 28 -36 32 -64 5 -37 2 -45
-25 -73 -24 -24 -39 -30 -72 -30 -33 0 -48 6 -72 30 -27 28 -30 36 -25 73 7
55 43 87 97 87 26 0 48 -8 65 -23z m1414 9 c91 -47 50 -186 -55 -186 -38 0
-94 59 -94 100 0 23 10 42 34 66 37 37 70 43 115 20z m-1278 -335 c55 -55 30
-148 -45 -167 -59 -15 -120 37 -120 102 0 28 7 43 32 65 44 40 93 39 133 0z
m1139 14 c37 -19 50 -43 50 -90 0 -81 -95 -123 -158 -70 -53 44 -47 120 12
156 38 23 58 24 96 4z m-1030 -320 c28 -14 60 -60 60 -85 0 -27 -33 -78 -56
-89 -44 -20 -83 -13 -115 18 -50 50 -34 134 31 160 35 14 47 13 80 -4z m915
-19 c32 -32 40 -69 25 -107 -28 -66 -109 -81 -161 -30 -38 39 -39 87 -3 130
22 26 33 31 70 31 34 0 51 -6 69 -24z m-651 -127 c26 -11 84 -24 130 -29 46
-5 99 -15 120 -24 l36 -15 -34 -45 c-44 -58 -63 -138 -49 -200 10 -44 10 -45
-29 -70 l-38 -25 -39 26 c-35 23 -38 28 -30 50 35 93 -26 234 -125 290 -9 5
-12 17 -9 36 6 32 8 33 67 6z m-103 -198 c84 -84 -33 -216 -128 -145 -76 57
-38 174 57 174 33 0 48 -6 71 -29z m620 0 c40 -40 40 -89 0 -133 -76 -85 -209
9 -157 110 20 39 41 51 89 52 29 0 45 -7 68 -29z m-490 -320 c38 -39 40 -97 5
-138 -20 -23 -32 -28 -69 -28 -52 0 -83 22 -96 69 -25 97 89 167 160 97z m350
0 c38 -39 40 -97 5 -138 -20 -23 -32 -28 -71 -28 -39 0 -51 5 -71 28 -82 95
48 226 137 138z m-1643 -547 c26 -18 29 -56 6 -78 -13 -13 -44 -16 -181 -16
-180 0 -203 6 -203 56 0 46 31 54 200 54 125 0 160 -3 178 -16z m3180 0 c26
-18 28 -50 5 -76 -14 -16 -34 -18 -181 -18 -179 0 -202 6 -202 56 0 46 31 54
200 54 125 0 160 -3 178 -16z"/>
<path d="M1584 600 c-172 -41 -212 -262 -66 -365 l44 -30 187 -3 c211 -4 253
3 307 50 41 36 59 69 69 121 18 92 -54 202 -147 225 -51 13 -343 15 -394 2z
m376 -160 c11 -11 20 -27 20 -35 0 -8 -9 -24 -20 -35 -18 -18 -33 -20 -183
-20 -169 0 -187 4 -201 43 -4 12 3 27 19 43 24 23 28 24 185 24 147 0 162 -2
180 -20z"/>
<path d="M2361 595 c-145 -46 -187 -235 -75 -339 56 -51 92 -58 300 -54 217 3
246 12 299 87 27 38 30 51 30 115 0 63 -4 78 -28 113 -15 22 -46 50 -70 64
-40 23 -52 24 -227 26 -137 2 -196 -1 -229 -12z m387 -151 c26 -18 29 -56 6
-78 -13 -13 -44 -16 -181 -16 -180 0 -203 6 -203 56 0 46 31 54 200 54 125 0
160 -3 178 -16z"/>
<path d="M3156 595 c-105 -38 -157 -131 -134 -238 13 -62 75 -130 133 -146 52
-14 368 -14 420 0 55 15 120 82 135 139 24 89 -20 188 -103 233 -39 20 -57 22
-227 24 -141 2 -194 0 -224 -12z m394 -155 c11 -11 20 -27 20 -35 0 -8 -9 -24
-20 -35 -18 -18 -33 -20 -183 -20 -190 0 -203 5 -198 73 2 29 38 36 204 36
144 1 159 -1 177 -19z"/>
</g>
</svg>
