<?xml version="1.0" standalone="no"?>
<!DOCTYPE svg PUBLIC "-//W3C//DTD SVG 20010904//EN"
 "http://www.w3.org/TR/2001/REC-SVG-20010904/DTD/svg10.dtd">
<svg version="1.0" xmlns="http://www.w3.org/2000/svg"
 width="512.000000pt" height="512.000000pt" viewBox="0 0 512.000000 512.000000"
 preserveAspectRatio="xMidYMid meet">

<g transform="translate(0.000000,512.000000) scale(0.100000,-0.100000)"
fill="#000000" stroke="none">
<path d="M3150 5109 c-69 -28 -110 -106 -91 -177 12 -44 32 -63 166 -163 116
-85 341 -307 435 -427 221 -283 380 -607 455 -927 63 -267 78 -593 37 -802
-40 -202 -123 -407 -234 -576 -28 -42 -53 -77 -57 -77 -3 0 -322 316 -708 702
l-703 703 364 365 c246 246 367 374 372 393 16 68 -12 137 -71 174 -28 17 -70
18 -693 21 -461 2 -676 -1 -705 -9 -37 -9 -118 -86 -705 -672 -710 -709 -703
-701 -687 -784 6 -33 50 -82 353 -386 191 -192 359 -355 374 -363 32 -17 76
-18 115 -4 15 6 154 137 308 290 l280 280 650 -650 c638 -638 648 -649 622
-659 -174 -66 -531 -109 -746 -91 -348 31 -730 183 -1024 406 -81 63 -125 78
-180 63 -37 -9 -104 -72 -554 -522 -456 -456 -512 -516 -519 -550 -15 -85 -3
-101 279 -384 283 -282 299 -294 384 -278 33 6 75 44 333 301 l295 294 60 -36
c90 -55 285 -150 404 -199 401 -163 780 -227 1166 -196 345 28 634 106 919
248 l109 54 231 -229 c327 -325 283 -328 653 41 368 368 364 329 57 638 l-215
216 62 98 c133 211 249 491 309 740 95 398 91 850 -11 1273 -79 327 -220 624
-424 899 -118 158 -362 401 -527 524 -226 169 -529 334 -756 413 -108 37 -140
42 -182 25z m1021 -906 c383 -397 587 -846 639 -1408 65 -706 -197 -1401 -694
-1837 -271 -237 -617 -400 -986 -463 -585 -99 -1131 25 -1729 393 -89 55 -129
64 -188 41 -15 -6 -153 -135 -306 -287 l-277 -277 -133 133 -132 132 380 380
c209 209 383 380 387 380 4 0 43 -24 85 -52 179 -121 484 -255 711 -312 390
-99 827 -75 1237 68 644 223 1125 757 1269 1407 85 384 42 843 -121 1291 -40
112 -151 342 -212 442 -40 64 -41 67 -14 48 15 -11 53 -47 84 -79z m-1501
-191 c0 -4 -124 -131 -276 -282 -152 -151 -282 -289 -290 -307 -18 -43 -18
-87 2 -126 9 -18 361 -378 783 -800 l766 -768 -50 -45 c-52 -47 -235 -174
-251 -174 -5 0 -338 329 -739 731 -402 402 -750 744 -774 760 -47 31 -90 36
-138 19 -15 -6 -154 -137 -308 -290 l-280 -280 -215 215 -215 215 570 570 570
570 422 0 c233 0 423 -3 423 -8z m1952 -3514 l-132 -133 -140 140 -140 140 42
35 c24 19 86 76 138 127 l95 93 135 -135 135 -135 -133 -132z"/>
</g>
</svg>
