<?xml version="1.0" standalone="no"?>
<!DOCTYPE svg PUBLIC "-//W3C//DTD SVG 20010904//EN"
 "http://www.w3.org/TR/2001/REC-SVG-20010904/DTD/svg10.dtd">
<svg version="1.0" xmlns="http://www.w3.org/2000/svg"
 width="512.000000pt" height="512.000000pt" viewBox="0 0 512.000000 512.000000"
 preserveAspectRatio="xMidYMid meet">

<g transform="translate(0.000000,512.000000) scale(0.100000,-0.100000)"
fill="#000000" stroke="none">
<path d="M1210 4970 l0 -150 33 0 c55 0 184 -37 250 -72 90 -47 204 -164 250
-255 57 -115 68 -187 65 -408 l-3 -189 -65 -13 c-390 -79 -672 -320 -779 -668
-138 -444 15 -1282 399 -2190 138 -325 244 -541 423 -863 l90 -162 687 0 687
0 90 163 c132 236 181 331 273 527 390 829 600 1586 600 2160 0 542 -297 917
-815 1029 l-80 18 -3 189 c-3 220 9 292 65 407 46 91 160 208 250 255 66 35
195 72 250 72 l33 0 0 150 0 150 -1350 0 -1350 0 0 -150z m2008 -177 c-71 -77
-145 -222 -179 -348 -18 -67 -23 -116 -27 -307 l-4 -228 -448 0 -448 0 -4 228
c-4 191 -9 240 -27 307 -34 126 -108 271 -179 348 l-26 27 684 0 684 0 -26
-27z m93 -1199 c213 -40 401 -163 497 -326 34 -57 75 -165 86 -225 l6 -33
-1341 0 -1341 0 7 33 c38 182 138 332 288 430 98 65 188 102 294 121 122 22
1387 22 1504 0z m-901 -1334 l0 -450 150 0 150 0 0 450 0 450 595 0 595 0 0
-47 c0 -82 -57 -434 -86 -535 -5 -17 -26 -18 -255 -18 l-249 0 0 150 0 150
-150 0 -150 0 0 -300 0 -300 359 0 359 0 -50 -150 -50 -150 -1068 0 -1067 0
-26 73 c-14 39 -37 107 -50 150 l-25 77 359 0 359 0 0 300 0 300 -150 0 -150
0 0 -150 0 -150 -249 0 c-229 0 -250 1 -255 18 -28 98 -74 370 -83 493 l-6 89
597 0 596 0 0 -450z m1100 -1054 c0 -19 -197 -441 -302 -648 l-131 -258 -517
0 -517 0 -131 258 c-105 207 -302 629 -302 648 0 2 428 4 950 4 523 0 950 -2
950 -4z"/>
</g>
</svg>
