<?xml version="1.0" standalone="no"?>
<!DOCTYPE svg PUBLIC "-//W3C//DTD SVG 20010904//EN"
 "http://www.w3.org/TR/2001/REC-SVG-20010904/DTD/svg10.dtd">
<svg version="1.0" xmlns="http://www.w3.org/2000/svg"
 width="512.000000pt" height="512.000000pt" viewBox="0 0 512.000000 512.000000"
 preserveAspectRatio="xMidYMid meet">

<g transform="translate(0.000000,512.000000) scale(0.100000,-0.100000)"
fill="#000000" stroke="none">
<path d="M905 4886 c-35 -35 -48 -97 -42 -196 8 -134 59 -260 174 -435 102
-154 203 -265 697 -763 l480 -483 -677 -677 -677 -677 -58 58 -58 57 -54 -55
-54 -55 57 -58 57 -57 -375 -375 c-370 -370 -375 -375 -375 -415 0 -40 5 -46
213 -251 225 -223 282 -264 401 -293 63 -15 179 -15 242 0 211 50 465 292 536
511 27 81 29 220 6 298 -22 70 -78 163 -147 241 l-54 61 677 677 676 676 676
-676 677 -677 -54 -61 c-117 -133 -164 -241 -163 -381 0 -156 58 -287 192
-430 160 -173 312 -251 487 -251 92 0 153 15 240 59 59 30 103 69 287 251 186
185 218 220 218 246 0 25 -51 81 -382 412 l-383 383 58 58 57 57 -52 53 -53
52 -57 -57 -58 -58 -223 222 c-122 121 -232 224 -243 227 -43 13 -94 -31 -94
-81 0 -10 102 -120 227 -245 l228 -228 -60 -60 -60 -60 -1356 1357 c-1414
1416 -1454 1458 -1551 1637 -46 85 -87 186 -88 216 0 20 248 -222 1233 -1207
677 -677 1242 -1234 1253 -1237 48 -14 103 44 87 92 -3 9 -164 176 -357 370
l-351 352 431 433 c590 593 639 646 757 828 108 167 156 288 164 419 6 99 -7
161 -42 196 -54 54 -16 88 -862 -758 l-783 -783 -783 783 c-846 846 -808 812
-862 758z m3166 -283 c-15 -59 -78 -185 -132 -265 -96 -141 -225 -281 -681
-736 l-483 -482 -60 60 -60 60 710 710 c390 390 711 707 713 705 3 -2 -1 -26
-7 -52z m-1688 -1761 l57 -57 -678 -678 -677 -677 -60 60 -60 60 675 675 c371
371 677 675 680 675 3 0 31 -26 63 -58z m-1468 -1582 l-60 -60 -60 60 -59 60
59 60 60 60 60 -60 60 -60 -60 -60z m3390 0 l-60 -60 -60 60 -59 60 59 60 60
60 60 -60 60 -60 -60 -60z m-3612 -108 l57 -58 -33 -32 -33 -32 -59 60 -59 60
29 30 c16 16 31 30 35 30 3 0 31 -26 63 -58z m532 -114 c59 -119 55 -226 -16
-358 -66 -125 -244 -280 -361 -315 -29 -8 -84 -15 -123 -15 -60 0 -81 5 -143
35 -41 20 -97 57 -128 87 l-55 52 343 343 343 343 53 -53 c30 -30 67 -81 87
-119z m3427 -561 c-28 -28 -79 -64 -126 -88 -69 -35 -86 -39 -150 -39 -97 0
-160 20 -250 81 -188 125 -312 335 -291 489 10 73 58 164 122 231 l57 60 343
-343 343 -343 -48 -48z m-147 703 l29 -30 -59 -60 -59 -60 -33 32 -33 32 57
58 c32 32 60 58 63 58 4 0 19 -14 35 -30z m-3982 -198 l57 -58 -33 -32 -33
-32 -59 60 -59 60 29 30 c16 16 31 30 35 30 3 0 31 -26 63 -58z m4152 28 l29
-30 -59 -60 -59 -60 -33 32 -33 32 57 58 c32 32 60 58 63 58 4 0 19 -14 35
-30z m-4322 -198 l57 -58 -60 -59 -60 -59 -60 59 -60 59 57 58 c32 32 60 58
63 58 3 0 31 -26 63 -58z m4520 0 l57 -58 -60 -59 -60 -59 -60 59 -60 59 57
58 c32 32 60 58 63 58 3 0 31 -26 63 -58z"/>
</g>
</svg>
